<?xml version="1.0" standalone="no"?>
<!DOCTYPE svg PUBLIC "-//W3C//DTD SVG 20010904//EN"
 "http://www.w3.org/TR/2001/REC-SVG-20010904/DTD/svg10.dtd">
<svg version="1.0" xmlns="http://www.w3.org/2000/svg"
 width="1024.000000pt" height="1024.000000pt" viewBox="0 0 1024.000000 1024.000000"
 preserveAspectRatio="xMidYMid meet">

<g transform="translate(0.000000,1024.000000) scale(0.100000,-0.100000)"
fill="#000000" stroke="none">
<path d="M0 5120 l0 -5120 5120 0 5120 0 0 5120 0 5120 -5120 0 -5120 0 0
-5120z m5424 3681 c165 -93 571 -320 901 -506 330 -185 697 -392 815 -458 118
-66 246 -139 285 -162 l70 -41 0 -1429 -1 -1430 -21 -70 c-26 -82 -78 -169
-95 -159 -7 5 -8 3 -4 -5 9 -14 -14 -42 -58 -74 -19 -13 -27 -15 -22 -6 4 7
-1 4 -11 -7 -26 -31 -161 -106 -175 -98 -7 4 -8 3 -4 -4 7 -12 -5 -16 -34 -12
-8 1 -12 -1 -8 -6 4 -4 0 -13 -10 -20 -20 -16 -56 -19 -47 -4 4 6 12 7 18 4 7
-4 9 -4 5 1 -4 4 0 14 10 22 15 11 13 12 -13 1 -16 -6 -36 -16 -43 -21 -7 -6
-15 -7 -18 -4 -6 5 10 15 176 107 52 29 112 66 132 81 39 31 54 37 42 17 -4
-7 -3 -8 5 -4 6 4 9 12 5 17 -3 5 6 23 21 41 35 41 65 102 81 163 11 41 14
315 14 1457 l0 1407 -237 134 c-223 126 -326 184 -853 479 -113 64 -434 244
-713 402 -279 157 -512 286 -518 286 -6 0 -121 -62 -257 -139 -411 -231 -1277
-718 -1442 -810 -277 -156 -285 -161 -299 -152 -18 11 2 23 26 15 14 -4 15 -4
4 4 -11 8 -8 13 15 26 16 8 25 15 21 16 -10 0 -137 -67 -150 -80 -4 -4 6 -7
23 -8 17 0 28 3 25 8 -8 12 9 20 23 11 8 -5 -31 -33 -109 -77 -113 -64 -164
-90 -130 -66 21 15 2 34 -28 28 -32 -8 8 15 554 324 237 133 511 289 610 345
223 127 595 337 820 463 94 53 195 110 225 128 30 18 59 33 64 33 4 1 144 -75
310 -168z m-290 -691 c6 -22 1 -28 -41 -49 -26 -13 -200 -109 -386 -213 -185
-104 -342 -188 -347 -186 -5 2 0 18 11 35 14 22 74 65 192 137 168 102 241
151 190 126 -22 -10 -31 -2 -16 14 15 15 10 40 -12 64 -20 21 -29 24 -64 18
-23 -3 -41 -3 -41 0 0 7 114 170 364 524 l131 184 6 -314 c4 -173 9 -326 13
-340z m855 16 c-2 -2 -77 -29 -165 -59 -135 -46 -165 -54 -179 -43 -14 10 0
17 97 44 208 58 259 70 247 58z m51 -120 c0 -6 -372 -238 -650 -406 -181 -109
-226 -139 -186 -124 15 6 18 4 14 -8 -5 -12 19 -29 95 -71 56 -30 192 -104
302 -164 110 -60 278 -151 373 -203 l173 -93 -58 -32 c-158 -85 -889 -519
-928 -550 -20 -16 -19 -16 3 -5 26 13 26 11 8 -25 -9 -17 -16 -22 -19 -13 -10
28 -17 -159 -28 -682 -7 -362 -14 -549 -21 -558 -29 -34 -29 -39 -54 895 -4
144 -11 260 -15 257 -5 -3 -16 11 -26 30 l-16 35 -34 -20 c-26 -16 -33 -18
-33 -6 0 8 -12 23 -26 33 -29 21 -58 70 -49 83 3 5 0 11 -5 13 -6 2 -13 16
-16 32 -4 23 -2 27 11 23 44 -18 -4 13 -182 114 -421 238 -583 334 -580 344
11 32 66 11 329 -122 313 -158 301 -153 268 -123 -14 13 -19 21 -10 19 24 -5
71 11 65 21 -4 6 -11 7 -17 4 -7 -4 -8 -2 -4 4 4 7 18 9 32 6 18 -5 24 -2 24
10 0 9 7 19 15 22 8 4 15 14 16 23 0 10 2 11 6 4 3 -10 8 -9 19 2 9 8 13 19 9
24 -3 5 -1 12 5 16 5 3 10 1 10 -4 0 -6 5 -11 10 -11 6 0 10 6 10 14 0 17 84
50 111 43 10 -3 17 -1 13 4 -3 5 2 9 10 9 9 0 16 4 16 10 0 5 -7 7 -15 4 -8
-4 -15 -2 -15 4 0 5 9 12 20 15 11 3 18 1 14 -4 -3 -5 4 -9 16 -9 11 0 24 -8
28 -17 5 -12 9 -2 12 32 4 30 9 -31 14 -152 7 -177 11 -203 25 -204 9 -1 25
-2 36 -3 11 -1 40 -3 64 -4 l44 -2 -19 -21 c-22 -24 -28 -27 448 230 174 94
322 171 327 171 28 0 2 20 -97 74 -208 114 -638 344 -727 389 -69 35 -91 43
-93 32 -2 -8 -8 -16 -13 -16 -10 -2 -25 -5 -36 -9 -5 -1 -11 -2 -15 -1 -5 0
-8 -4 -8 -9 0 -6 -7 -10 -15 -10 -8 0 -15 -4 -15 -8 0 -10 -74 -45 -95 -45 -8
0 -15 -4 -15 -9 0 -5 -4 -7 -9 -4 -5 3 -134 -55 -287 -130 -277 -135 -324
-157 -324 -150 0 8 518 314 820 483 187 106 927 502 938 503 1 0 2 -2 2 -4z
m-945 -235 c-17 -16 -340 -218 -417 -261 -41 -23 -110 -73 -154 -112 -126
-113 -218 -176 -416 -288 l-187 -105 -6 -57 c-4 -35 -11 -57 -18 -55 -7 1 -11
-6 -9 -15 1 -9 -2 -19 -8 -23 -6 -4 -10 22 -10 74 l0 80 -82 49 c-46 27 -127
75 -181 106 -54 32 -96 60 -93 64 4 3 12 0 18 -6 17 -17 28 -15 22 3 -8 19 -7
19 201 -78 l160 -75 80 42 c189 100 366 210 443 276 45 39 82 75 82 80 0 4
-60 9 -132 9 -117 1 -282 7 -1013 37 -93 4 -181 10 -195 14 -14 4 308 10 715
15 l740 7 225 114 c211 106 258 127 235 105z m-2298 -253 c-3 -8 -6 -5 -6 6
-1 11 2 17 5 13 3 -3 4 -12 1 -19z m4393 18 c0 -6 -382 -230 -659 -386 -231
-130 -235 -132 -260 -116 -14 9 -88 51 -163 93 -75 43 -135 79 -134 81 2 1 73
-22 158 -53 l154 -55 380 185 c208 102 411 201 449 220 78 38 75 36 75 31z
m-3853 -1049 l224 -448 -7 -459 c-5 -305 -4 -460 3 -460 5 0 48 24 94 53 l84
52 6 80 c4 44 10 176 14 294 4 117 11 207 16 200 7 -14 37 -366 41 -497 l2
-73 91 -57 c101 -63 321 -217 329 -230 3 -5 -98 43 -224 107 l-229 116 -96
-50 c-79 -42 -92 -52 -79 -62 9 -6 194 -113 412 -237 l397 -226 49 -93 c27
-50 84 -155 126 -232 64 -116 287 -532 329 -612 48 -93 -102 133 -338 512
-124 196 -159 250 -132 198 18 -35 14 -41 -29 -33 -22 4 -42 5 -45 2 -3 -3
-11 -7 -18 -8 -69 -13 -98 -26 -93 -41 4 -11 1 -11 -14 -3 -25 13 -26 3 -3
-24 9 -12 -60 55 -155 149 -94 93 -170 171 -167 173 2 2 63 -3 137 -12 220
-25 274 -29 263 -19 -10 10 -325 199 -641 386 l-162 95 -83 -46 c-55 -30 -96
-46 -121 -46 -21 -1 -38 0 -38 1 0 1 47 31 105 68 l105 67 -1 277 c-1 261 -13
674 -17 584 -2 -40 -22 -73 -22 -36 0 22 -27 -17 -98 -140 -27 -48 -52 -84
-55 -80 -2 4 -21 80 -42 168 -146 630 -132 563 -109 545 10 -9 15 -10 10 -2
-4 6 -2 12 3 12 6 0 11 5 11 10 0 11 36 50 46 50 3 0 12 7 21 15 8 8 19 13 24
10 5 -4 6 1 3 9 -3 9 -10 13 -15 10 -5 -3 -6 1 -3 9 3 8 -27 86 -67 173 -39
88 -92 211 -118 274 -26 63 -57 133 -69 155 l-20 40 4 -45 4 -45 -15 50 c-8
28 -13 58 -11 68 2 9 0 17 -6 17 -5 0 -7 4 -4 8 3 5 -1 30 -9 57 -8 26 -15 53
-15 59 0 6 44 -79 97 -189 54 -110 198 -402 320 -648z m3896 792 c15 -11 31
-37 37 -57 8 -26 10 -401 8 -1227 l-3 -1190 -27 -58 c-53 -112 -77 -133 -338
-277 -102 -56 -219 -121 -260 -145 -41 -23 -322 -181 -625 -351 -612 -342
-613 -342 -674 -288 -20 18 -36 45 -41 69 -6 23 -10 519 -10 1180 0 1227 -2
1184 52 1290 42 81 107 132 333 260 116 65 477 271 804 457 326 187 603 343
615 348 40 16 102 11 129 -11z m-3129 -1049 c9 -195 18 -418 22 -496 5 -129 8
-141 27 -154 12 -8 119 -73 237 -145 369 -225 585 -365 565 -365 -15 0 -402
207 -810 433 l-80 44 -6 109 c-8 127 -2 727 8 894 10 169 18 98 37 -320z
m-977 188 c-3 -8 -6 -5 -6 6 -1 11 2 17 5 13 3 -3 4 -12 1 -19z m1168 -1153
c33 -21 36 -25 18 -25 -13 0 -23 -4 -23 -10 0 -21 -17 -8 -33 25 -20 41 -15
42 38 10z m801 -527 c-16 -22 -16 -22 -16 -1 0 12 6 23 13 26 19 7 20 0 3 -25z
m922 -1743 c120 -29 195 -83 241 -173 58 -115 66 -460 14 -623 -26 -83 -108
-161 -198 -188 -104 -33 -247 -44 -470 -38 -294 7 -399 38 -477 141 -61 81
-73 146 -73 386 0 228 9 277 65 361 56 85 155 132 315 149 123 13 508 4 583
-15z m-2475 -7 c76 -26 119 -60 152 -119 26 -48 29 -64 29 -139 0 -60 -4 -94
-16 -115 -17 -32 -61 -76 -93 -93 -17 -9 -15 -12 20 -27 88 -36 129 -110 130
-229 0 -93 -24 -154 -80 -204 -85 -75 -88 -75 -642 -79 l-493 -4 0 509 c0 280
3 512 7 516 4 4 217 6 473 4 396 -4 472 -7 513 -20z m697 -378 l0 -400 340 0
340 0 0 -115 0 -115 -480 0 -480 0 0 515 0 515 140 0 140 0 0 -400z m2485 392
c6 -4 73 -81 149 -172 76 -91 142 -169 146 -173 4 -4 75 73 159 172 l152 181
165 0 c90 0 164 -3 164 -7 0 -8 -40 -54 -293 -337 l-148 -166 158 -176 c87
-97 191 -214 231 -260 l74 -84 -173 2 -173 3 -151 177 c-82 97 -153 177 -157
177 -4 1 -77 -80 -163 -179 l-157 -180 -171 0 -171 0 26 28 c143 153 438 487
436 493 -2 4 -100 116 -218 249 -118 133 -216 246 -218 251 -4 11 318 12 333
1z m-2855 -1329 l0 -33 -55 0 -55 0 0 -135 0 -135 -35 0 -35 0 0 135 0 135
-55 0 c-54 0 -55 0 -55 29 0 29 2 30 53 33 28 2 94 3 144 3 l93 0 0 -32z m370
17 c45 -23 47 -29 23 -59 l-18 -22 -40 21 c-47 24 -57 25 -100 5 -38 -19 -55
-51 -55 -106 0 -81 83 -124 161 -83 28 14 33 14 56 -1 23 -16 24 -18 8 -35
-28 -31 -99 -53 -146 -46 -111 18 -175 105 -155 211 8 42 58 103 101 121 45
20 120 17 165 -6z m428 0 l44 -20 -21 -29 -21 -29 -41 21 c-55 27 -104 16
-136 -32 -62 -92 22 -206 126 -170 25 9 31 16 31 40 0 26 -3 29 -35 29 -32 0
-35 2 -35 30 l0 30 70 0 71 0 -3 -77 -3 -78 -35 -17 c-118 -57 -247 -11 -280
99 -45 148 118 271 268 203z m592 6 c39 -14 47 -32 28 -59 -12 -17 -16 -17
-50 -2 -48 19 -82 19 -99 -1 -21 -25 0 -45 76 -69 77 -25 105 -52 105 -100 0
-93 -140 -134 -245 -71 l-36 22 24 22 23 22 52 -22 c43 -18 55 -20 77 -10 19
9 25 18 23 35 -2 18 -16 26 -72 44 -38 13 -75 28 -83 35 -45 37 -34 116 21
149 36 22 103 24 156 5z m262 -53 l3 -68 75 0 75 0 0 65 0 65 35 0 35 0 3
-167 2 -168 -40 0 -41 0 3 68 3 67 -79 3 -78 3 4 -71 4 -70 -38 0 -38 0 0 170
0 170 35 0 34 0 3 -67z m624 48 c124 -57 137 -222 23 -298 -60 -40 -147 -40
-207 0 -23 15 -51 45 -62 67 -77 150 86 303 246 231z m462 -8 c32 -20 55 -77
46 -117 -13 -62 -67 -96 -154 -96 l-50 0 0 -50 0 -50 -35 0 -35 0 0 171 0 171
103 -7 c62 -4 111 -13 125 -22z m-3198 -143 c0 -7 -44 -10 -127 -9 -200 4
-228 16 -40 18 110 1 167 -3 167 -9z m3805 -1 c-59 -12 -385 -11 -385 1 0 6
77 10 213 9 140 -1 198 -4 172 -10z"/>
<path d="M7230 4459 c-36 -22 -67 -45 -69 -51 -2 -6 13 -1 32 11 20 12 41 20
47 16 6 -4 9 -2 8 2 -2 5 11 21 27 36 41 36 31 33 -45 -14z"/>
<path d="M7100 4380 c-9 -6 -10 -10 -3 -10 6 0 15 5 18 10 8 12 4 12 -15 0z"/>
<path d="M4950 6839 c0 -5 5 -7 10 -4 6 3 10 8 10 11 0 2 -4 4 -10 4 -5 0 -10
-5 -10 -11z"/>
<path d="M4910 6820 c-9 -6 -10 -10 -3 -10 6 0 15 5 18 10 8 12 4 12 -15 0z"/>
<path d="M6945 7027 c-44 -24 -374 -211 -733 -416 -597 -341 -656 -377 -688
-419 -68 -92 -65 -35 -62 -1199 l3 -1051 24 -26 c44 -47 74 -38 291 85 107 61
389 219 625 351 575 322 607 341 648 389 71 82 67 15 67 1202 l0 1069 -29 29
c-16 16 -38 29 -48 29 -10 0 -54 -20 -98 -43z m-167 -231 c15 -59 66 -111 122
-126 41 -11 61 -10 124 6 l26 6 0 -795 0 -796 -57 -40 c-53 -37 -110 -101
-157 -174 -27 -44 -66 -154 -66 -190 0 -17 -4 -37 -8 -42 -8 -12 -228 -140
-492 -285 -300 -166 -353 -194 -347 -183 4 6 20 16 37 23 16 7 28 16 25 20 -3
4 5 10 16 13 12 3 18 10 15 15 -3 5 3 18 14 30 18 19 23 34 37 107 3 17 10 33
16 37 7 4 9 8 4 8 -4 0 0 16 8 36 8 20 15 47 15 60 0 13 5 24 12 24 6 0 9 3 5
6 -6 6 15 71 34 107 6 11 8 21 5 24 -3 4 2 12 12 19 16 12 15 13 -6 14 -13 0
-20 4 -17 10 3 6 -1 10 -10 10 -8 0 -18 -7 -21 -15 -4 -8 -10 -13 -14 -10 -5
3 -12 0 -16 -6 -3 -6 0 -15 7 -20 9 -6 10 -9 2 -9 -6 0 -15 -9 -18 -20 -4 -11
-10 -18 -14 -16 -4 3 -15 -10 -24 -29 -17 -36 -31 -43 -43 -24 -7 12 15 31 28
23 4 -3 8 0 8 5 0 6 -7 11 -16 11 -10 0 -14 6 -10 15 6 17 -19 21 -30 4 -4 -8
-9 -7 -15 2 -6 10 -12 9 -30 -6 -12 -11 -19 -14 -15 -8 5 9 2 11 -8 7 -9 -3
-16 -13 -16 -21 0 -8 -4 -11 -10 -8 -5 3 -10 1 -10 -4 0 -6 -23 -33 -50 -61
-28 -28 -48 -55 -45 -59 3 -5 -1 -11 -8 -14 -7 -2 -21 -22 -32 -42 -31 -59
-66 -91 -115 -103 -24 -6 -45 -10 -46 -9 -3 3 -12 82 -14 127 -2 34 -3 34 -11
-10 -4 -25 -8 -72 -8 -105 0 -33 -1 -64 -3 -70 -5 -19 -13 840 -10 1215 l2
376 36 19 c106 57 234 271 234 390 0 32 6 35 333 223 182 104 395 227 472 271
77 45 142 81 145 81 3 0 11 -20 18 -44z m-878 -2527 c0 -5 -4 -9 -10 -9 -5 0
-10 7 -10 16 0 8 5 12 10 9 6 -3 10 -10 10 -16z m15 -26 c-10 -15 -12 -22 -4
-15 7 6 20 12 29 12 9 0 3 -8 -15 -20 -33 -22 -50 -26 -40 -10 3 6 1 10 -4 10
-22 0 -10 28 14 34 14 4 25 12 25 18 0 6 3 8 6 5 4 -4 -1 -19 -11 -34z"/>
<path d="M6255 6127 c-75 -160 -260 -387 -399 -492 l-66 -49 0 -223 c0 -286
15 -358 94 -441 40 -43 63 -55 203 -103 64 -22 138 -51 165 -65 28 -14 54 -22
57 -17 4 4 52 70 107 147 54 76 125 175 157 220 93 128 145 223 179 326 l32
95 4 282 3 281 -47 -14 c-26 -8 -85 -14 -131 -14 -99 0 -165 20 -260 80 -35
22 -66 40 -68 40 -3 0 -16 -24 -30 -53z m130 -112 l80 -40 122 0 123 0 0 -204
c0 -334 -19 -382 -299 -764 -86 -118 -119 -156 -131 -151 -8 4 -72 26 -141 49
-148 49 -181 67 -214 115 -45 65 -48 86 -53 307 l-4 213 107 102 c109 104 222
245 285 356 19 34 37 60 40 59 3 -2 41 -21 85 -42z"/>
<path d="M6234 5852 c-46 -71 -106 -143 -181 -219 l-113 -114 0 -159 c0 -87 5
-182 11 -210 11 -52 45 -102 82 -122 17 -8 218 -82 251 -91 11 -3 199 252 260
352 84 139 106 234 106 457 l0 142 -107 4 c-95 3 -116 7 -174 34 l-66 31 -69
-105z"/>
<path d="M6136 4941 c-3 -5 29 -20 71 -34 84 -29 108 -30 41 -3 -24 10 -57 24
-75 32 -18 7 -35 10 -37 5z"/>
<path d="M6990 5121 c0 -6 -12 -17 -27 -23 -16 -7 -36 -20 -47 -31 -22 -22
-34 -14 -15 10 13 16 12 17 -4 4 -10 -8 -16 -20 -13 -28 3 -8 -12 -32 -34 -54
-22 -22 -40 -37 -41 -32 0 4 -4 -2 -9 -14 -5 -13 -18 -23 -27 -23 -18 0 -53
-32 -53 -49 0 -5 -6 -11 -14 -14 -7 -3 -17 -18 -20 -34 -4 -15 -19 -53 -34
-83 -14 -30 -27 -57 -27 -60 -9 -32 -32 -64 -76 -104 l-54 -49 70 38 c39 21
91 50 118 64 33 17 47 31 47 45 0 12 5 28 10 36 8 12 10 10 10 -10 1 -16 8 -3
20 35 18 57 20 93 2 44 -18 -47 -22 -54 -17 -24 3 17 26 71 50 122 38 77 57
102 122 162 42 39 73 74 70 78 -4 3 -7 1 -7 -6z"/>
<path d="M6170 4745 c14 -8 30 -14 35 -14 6 0 -1 6 -15 14 -14 8 -29 14 -35
14 -5 0 1 -6 15 -14z"/>
<path d="M6015 4600 c-3 -5 -1 -10 4 -10 6 0 11 5 11 10 0 6 -2 10 -4 10 -3 0
-8 -4 -11 -10z"/>
<path d="M6030 4260 c-9 -6 -10 -10 -3 -10 6 0 15 5 18 10 8 12 4 12 -15 0z"/>
<path d="M7170 5139 l-5 -285 -36 -72 c-38 -77 -39 -94 -1 -35 33 52 52 135
52 228 0 51 5 86 13 94 10 11 9 12 -2 6 -9 -5 -12 -3 -9 6 3 8 11 13 17 12 6
-2 11 7 11 18 0 18 -2 19 -15 9 -13 -10 -15 -9 -15 9 0 11 5 20 11 19 6 -2 13
7 15 19 3 16 0 21 -11 17 -8 -4 -15 -1 -15 5 0 6 6 10 13 9 7 -2 14 10 17 27
3 17 7 -15 10 -70 6 -95 6 -93 7 45 0 80 -2 132 -6 115 -5 -25 -8 -27 -14 -12
-4 11 -4 24 0 29 4 7 1 8 -6 3 -7 -4 -11 -18 -8 -32 2 -13 1 -21 -4 -16 -4 4
-9 37 -11 73 -2 36 -6 -64 -8 -221z m50 131 c0 -5 -5 -10 -11 -10 -5 0 -7 5
-4 10 3 6 8 10 11 10 2 0 4 -4 4 -10z"/>
<path d="M7221 5034 c0 -11 3 -14 6 -6 3 7 2 16 -1 19 -3 4 -6 -2 -5 -13z"/>
<path d="M7187 4755 c-15 -30 -25 -55 -22 -55 7 0 57 101 53 106 -2 2 -16 -21
-31 -51z"/>
<path d="M6974 4623 c-106 -65 -99 -59 -79 -67 11 -4 14 -2 9 7 -5 9 -4 9 6 0
11 -10 11 -15 -1 -29 -11 -13 -4 -12 31 6 80 40 179 101 191 118 11 14 11 15
-1 5 -18 -17 -35 -16 -52 1 -12 11 -28 5 -104 -41z"/>
<path d="M6864 4504 c-18 -14 -18 -15 4 -4 12 6 22 13 22 15 0 8 -5 6 -26 -11z"/>
<path d="M5350 4036 c0 -314 3 -327 80 -324 l35 1 -40 6 c-29 4 -43 13 -52 31
-14 26 -16 153 -2 145 4 -3 5 -14 2 -25 -3 -12 0 -20 6 -20 7 0 9 5 5 12 -4 7
-3 8 5 4 6 -4 9 -11 6 -16 -3 -5 -2 -11 3 -14 4 -2 9 -24 11 -48 2 -43 -6 -49
-14 -8 -6 31 -11 35 -17 12 -6 -22 11 -49 32 -52 35 -5 52 0 46 15 -3 8 -1 15
3 15 5 0 11 -6 13 -12 3 -9 9 -8 21 4 10 9 26 20 37 23 11 3 20 11 20 16 0 6
4 8 9 4 5 -3 13 0 17 6 5 8 3 9 -6 4 -10 -6 -12 -4 -7 8 5 13 0 17 -21 17 -37
0 -88 33 -106 68 -11 21 -18 79 -23 193 -4 98 -10 152 -14 134 -4 -16 -7 -24
-8 -17 0 6 -6 12 -12 12 -5 0 -8 -4 -4 -9 3 -5 2 -12 -3 -15 -5 -3 -9 16 -11
42 -1 25 -4 48 -7 51 -2 2 -4 -116 -4 -263z"/>
<path d="M6220 4198 c-41 -23 -69 -43 -62 -46 18 -6 15 -29 -5 -41 -42 -24 4
-8 57 20 36 19 60 39 64 52 5 21 4 21 -9 4 -7 -10 -16 -14 -19 -8 -3 5 8 21
26 35 45 36 35 32 -52 -16z"/>
<path d="M5880 4005 c-14 -8 -20 -14 -14 -15 5 0 19 7 30 15 24 18 16 19 -16
0z"/>
<path d="M5960 3999 c0 -5 5 -7 10 -4 6 3 10 8 10 11 0 2 -4 4 -10 4 -5 0 -10
-5 -10 -11z"/>
<path d="M5885 3960 c-3 -6 1 -7 9 -4 18 7 21 14 7 14 -6 0 -13 -4 -16 -10z"/>
<path d="M5448 2776 c-58 -16 -76 -30 -99 -81 -16 -34 -19 -67 -19 -205 0
-142 3 -171 20 -208 32 -72 55 -77 325 -77 210 0 233 2 269 20 70 35 81 72 81
265 0 145 -2 170 -20 204 -24 48 -58 74 -111 86 -59 14 -391 11 -446 -4z"/>
<path d="M2822 2703 l3 -98 255 -3 c140 -2 270 0 289 3 51 10 81 45 81 98 0
34 -6 49 -26 68 l-26 24 -289 3 -290 3 3 -98z"/>
<path d="M2820 2300 l0 -110 291 0 c337 0 351 3 370 73 15 56 -5 106 -51 129
-31 16 -69 18 -322 18 l-288 0 0 -110z"/>
<path d="M6033 1643 c-59 -11 -91 -100 -58 -163 19 -37 43 -50 92 -50 82 1
127 84 87 161 -13 27 -69 62 -91 58 -4 -1 -18 -4 -30 -6z"/>
<path d="M6452 1588 l3 -53 38 -3 c52 -4 87 19 87 58 0 36 -23 50 -85 50 l-46
0 3 -52z"/>
</g>
</svg>
